{
  "asset": {
    "generator": "glTF-Transform v4.2.1",
    "version": "2.0"
  },
  "accessors": [
    {
      "type": "VEC3",
      "componentType": 5126,
      "count": 40692,
      "max": [
        3.4139130115509033,
        5.1267991065979,
        1.6190210580825806
      ],
      "min": [
        -3.4139130115509033,
        -0.02457999996840954,
        -1.0773019790649414
      ],
      "bufferView": 0,
      "byteOffset": 0
    },
    {
      "type": "VEC3",
      "componentType": 5126,
      "count": 40692,
      "bufferView": 0,
      "byteOffset": 12
    },
    {
      "type": "VEC2",
      "componentType": 5126,
      "count": 40692,
      "bufferView": 0,
      "byteOffset": 24
    },
    {
      "type": "SCALAR",
      "componentType": 5123,
      "count": 15792,
      "bufferView": 1,
      "byteOffset": 0
    },
    {
      "type": "SCALAR",
      "componentType": 5123,
      "count": 1164,
      "bufferView": 1,
      "byteOffset": 31584
    },
    {
      "type": "SCALAR",
      "componentType": 5123,
      "count": 5676,
      "bufferView": 1,
      "byteOffset": 33912
    },
    {
      "type": "SCALAR",
      "componentType": 5123,
      "count": 804,
      "bufferView": 1,
      "byteOffset": 45264
    },
    {
      "type": "SCALAR",
      "componentType": 5123,
      "count": 6084,
      "bufferView": 1,
      "byteOffset": 46872
    },
    {
      "type": "SCALAR",
      "componentType": 5123,
      "count": 9156,
      "bufferView": 1,
      "byteOffset": 59040
    },
    {
      "type": "SCALAR",
      "componentType": 5123,
      "count": 672,
      "bufferView": 1,
      "byteOffset": 77352
    },
    {
      "type": "SCALAR",
      "componentType": 5123,
      "count": 1344,
      "bufferView": 1,
      "byteOffset": 78696
    }
  ],
  "bufferViews": [
    {
      "buffer": 0,
      "byteOffset": 0,
      "byteLength": 1302144,
      "byteStride": 32,
      "target": 34962
    },
    {
      "buffer": 0,
      "byteOffset": 1302144,
      "byteLength": 81384,
      "target": 34963
    }
  ],
  "buffers": [
    {
      "uri": "buffer.bin",
      "byteLength": 1383528
    }
  ],
  "materials": [
    {
      "name": "Windows",
      "doubleSided": true,
      "pbrMetallicRoughness": {
        "baseColorFactor": [
          0.281226,
          0.281226,
          0.281226,
          1
        ],
        "metallicFactor": 0
      }
    },
    {
      "name": "Glass",
      "doubleSided": true,
      "pbrMetallicRoughness": {
        "baseColorFactor": [
          0.139718,
          0.203322,
          0.262222,
          1
        ],
        "metallicFactor": 0
      }
    },
    {
      "name": "Bricks",
      "doubleSided": true,
      "pbrMetallicRoughness": {
        "baseColorFactor": [
          0.132106,
          0.247575,
          0.209801,
          1
        ],
        "metallicFactor": 0
      }
    },
    {
      "name": "Main",
      "doubleSided": true,
      "pbrMetallicRoughness": {
        "baseColorFactor": [
          0.092037,
          0.171223,
          0.143844,
          1
        ],
        "metallicFactor": 0
      }
    },
    {
      "name": "Dark",
      "doubleSided": true,
      "pbrMetallicRoughness": {
        "baseColorFactor": [
          0.054783,
          0.091548,
          0.089546,
          1
        ],
        "metallicFactor": 0
      }
    },
    {
      "name": "White",
      "doubleSided": true,
      "pbrMetallicRoughness": {
        "baseColorFactor": [
          0.467263,
          0.467263,
          0.467263,
          1
        ],
        "metallicFactor": 0
      }
    },
    {
      "name": "Black",
      "doubleSided": true,
      "pbrMetallicRoughness": {
        "baseColorFactor": [
          0.053301,
          0.053301,
          0.053301,
          1
        ],
        "metallicFactor": 0
      }
    },
    {
      "name": "DarkBrown",
      "doubleSided": true,
      "pbrMetallicRoughness": {
        "baseColorFactor": [
          0.078801,
          0.043526,
          0.029992,
          1
        ],
        "metallicFactor": 0
      }
    }
  ],
  "meshes": [
    {
      "primitives": [
        {
          "attributes": {
            "POSITION": 0,
            "NORMAL": 1,
            "TEXCOORD_0": 2
          },
          "mode": 4,
          "material": 0,
          "indices": 3
        },
        {
          "attributes": {
            "POSITION": 0,
            "NORMAL": 1,
            "TEXCOORD_0": 2
          },
          "mode": 4,
          "material": 1,
          "indices": 4
        },
        {
          "attributes": {
            "POSITION": 0,
            "NORMAL": 1,
            "TEXCOORD_0": 2
          },
          "mode": 4,
          "material": 2,
          "indices": 5
        },
        {
          "attributes": {
            "POSITION": 0,
            "NORMAL": 1,
            "TEXCOORD_0": 2
          },
          "mode": 4,
          "material": 3,
          "indices": 6
        },
        {
          "attributes": {
            "POSITION": 0,
            "NORMAL": 1,
            "TEXCOORD_0": 2
          },
          "mode": 4,
          "material": 4,
          "indices": 7
        },
        {
          "attributes": {
            "POSITION": 0,
            "NORMAL": 1,
            "TEXCOORD_0": 2
          },
          "mode": 4,
          "material": 5,
          "indices": 8
        },
        {
          "attributes": {
            "POSITION": 0,
            "NORMAL": 1,
            "TEXCOORD_0": 2
          },
          "mode": 4,
          "material": 6,
          "indices": 9
        },
        {
          "attributes": {
            "POSITION": 0,
            "NORMAL": 1,
            "TEXCOORD_0": 2
          },
          "mode": 4,
          "material": 7,
          "indices": 10
        }
      ]
    }
  ],
  "nodes": [
    {
      "name": "empty_2",
      "children": [
        1
      ]
    },
    {
      "name": "o 4Story_Wide_2Doors_Mat_Cube.013",
      "mesh": 0
    }
  ],
  "scenes": [
    {
      "name": "empty_1",
      "nodes": [
        0
      ]
    }
  ],
  "scene": 0
}