{
  "asset": {
    "generator": "glTF-Transform v4.2.1",
    "version": "2.0"
  },
  "accessors": [
    {
      "type": "VEC3",
      "componentType": 5126,
      "count": 37914,
      "max": [
        3.4139130115509033,
        5.658881187438965,
        1.6190199851989746
      ],
      "min": [
        -3.4139130115509033,
        -0.02457999996840954,
        -1.0773030519485474
      ],
      "bufferView": 0,
      "byteOffset": 0
    },
    {
      "type": "VEC3",
      "componentType": 5126,
      "count": 37914,
      "bufferView": 0,
      "byteOffset": 12
    },
    {
      "type": "VEC2",
      "componentType": 5126,
      "count": 37914,
      "bufferView": 0,
      "byteOffset": 24
    },
    {
      "type": "SCALAR",
      "componentType": 5123,
      "count": 17568,
      "bufferView": 1,
      "byteOffset": 0
    },
    {
      "type": "SCALAR",
      "componentType": 5123,
      "count": 1236,
      "bufferView": 1,
      "byteOffset": 35136
    },
    {
      "type": "SCALAR",
      "componentType": 5123,
      "count": 3480,
      "bufferView": 1,
      "byteOffset": 37608
    },
    {
      "type": "SCALAR",
      "componentType": 5123,
      "count": 762,
      "bufferView": 1,
      "byteOffset": 44568
    },
    {
      "type": "SCALAR",
      "componentType": 5123,
      "count": 6192,
      "bufferView": 1,
      "byteOffset": 46092
    },
    {
      "type": "SCALAR",
      "componentType": 5123,
      "count": 8676,
      "bufferView": 1,
      "byteOffset": 58476
    }
  ],
  "bufferViews": [
    {
      "buffer": 0,
      "byteOffset": 0,
      "byteLength": 1213248,
      "byteStride": 32,
      "target": 34962
    },
    {
      "buffer": 0,
      "byteOffset": 1213248,
      "byteLength": 75828,
      "target": 34963
    }
  ],
  "buffers": [
    {
      "uri": "buffer.bin",
      "byteLength": 1289076
    }
  ],
  "materials": [
    {
      "name": "Windows",
      "doubleSided": true,
      "pbrMetallicRoughness": {
        "baseColorFactor": [
          0.281226,
          0.281226,
          0.281226,
          1
        ],
        "metallicFactor": 0
      }
    },
    {
      "name": "Glass",
      "doubleSided": true,
      "pbrMetallicRoughness": {
        "baseColorFactor": [
          0.139718,
          0.203322,
          0.262222,
          1
        ],
        "metallicFactor": 0
      }
    },
    {
      "name": "Bricks",
      "doubleSided": true,
      "pbrMetallicRoughness": {
        "baseColorFactor": [
          0.132106,
          0.247575,
          0.209801,
          1
        ],
        "metallicFactor": 0
      }
    },
    {
      "name": "Main",
      "doubleSided": true,
      "pbrMetallicRoughness": {
        "baseColorFactor": [
          0.092037,
          0.171223,
          0.143844,
          1
        ],
        "metallicFactor": 0
      }
    },
    {
      "name": "Dark",
      "doubleSided": true,
      "pbrMetallicRoughness": {
        "baseColorFactor": [
          0.054783,
          0.091548,
          0.089546,
          1
        ],
        "metallicFactor": 0
      }
    },
    {
      "name": "White",
      "doubleSided": true,
      "pbrMetallicRoughness": {
        "baseColorFactor": [
          0.467263,
          0.467263,
          0.467263,
          1
        ],
        "metallicFactor": 0
      }
    }
  ],
  "meshes": [
    {
      "primitives": [
        {
          "attributes": {
            "POSITION": 0,
            "NORMAL": 1,
            "TEXCOORD_0": 2
          },
          "mode": 4,
          "material": 0,
          "indices": 3
        },
        {
          "attributes": {
            "POSITION": 0,
            "NORMAL": 1,
            "TEXCOORD_0": 2
          },
          "mode": 4,
          "material": 1,
          "indices": 4
        },
        {
          "attributes": {
            "POSITION": 0,
            "NORMAL": 1,
            "TEXCOORD_0": 2
          },
          "mode": 4,
          "material": 2,
          "indices": 5
        },
        {
          "attributes": {
            "POSITION": 0,
            "NORMAL": 1,
            "TEXCOORD_0": 2
          },
          "mode": 4,
          "material": 3,
          "indices": 6
        },
        {
          "attributes": {
            "POSITION": 0,
            "NORMAL": 1,
            "TEXCOORD_0": 2
          },
          "mode": 4,
          "material": 4,
          "indices": 7
        },
        {
          "attributes": {
            "POSITION": 0,
            "NORMAL": 1,
            "TEXCOORD_0": 2
          },
          "mode": 4,
          "material": 5,
          "indices": 8
        }
      ]
    }
  ],
  "nodes": [
    {
      "name": "empty_2",
      "children": [
        1
      ]
    },
    {
      "name": "o 4Story_Wide_2Doors_Roof_Mat_Cube.004",
      "mesh": 0
    }
  ],
  "scenes": [
    {
      "name": "empty_1",
      "nodes": [
        0
      ]
    }
  ],
  "scene": 0
}