{
  "asset": {
    "generator": "glTF-Transform v4.2.1",
    "version": "2.0"
  },
  "accessors": [
    {
      "type": "VEC3",
      "componentType": 5126,
      "count": 5052,
      "max": [
        1.0526249408721924,
        2.018855094909668,
        1.1900650262832642
      ],
      "min": [
        -1.0526249408721924,
        -0.005704999901354313,
        -1.1900650262832642
      ],
      "bufferView": 0,
      "byteOffset": 0
    },
    {
      "type": "VEC3",
      "componentType": 5126,
      "count": 5052,
      "bufferView": 0,
      "byteOffset": 12
    },
    {
      "type": "VEC2",
      "componentType": 5126,
      "count": 5052,
      "bufferView": 0,
      "byteOffset": 24
    },
    {
      "type": "SCALAR",
      "componentType": 5123,
      "count": 48,
      "bufferView": 1,
      "byteOffset": 0
    },
    {
      "type": "SCALAR",
      "componentType": 5123,
      "count": 774,
      "bufferView": 1,
      "byteOffset": 96
    },
    {
      "type": "SCALAR",
      "componentType": 5123,
      "count": 2022,
      "bufferView": 1,
      "byteOffset": 1644
    },
    {
      "type": "SCALAR",
      "componentType": 5123,
      "count": 594,
      "bufferView": 1,
      "byteOffset": 5688
    },
    {
      "type": "SCALAR",
      "componentType": 5123,
      "count": 492,
      "bufferView": 1,
      "byteOffset": 6876
    },
    {
      "type": "SCALAR",
      "componentType": 5123,
      "count": 294,
      "bufferView": 1,
      "byteOffset": 7860
    },
    {
      "type": "SCALAR",
      "componentType": 5123,
      "count": 120,
      "bufferView": 1,
      "byteOffset": 8448
    },
    {
      "type": "SCALAR",
      "componentType": 5123,
      "count": 708,
      "bufferView": 1,
      "byteOffset": 8688
    }
  ],
  "bufferViews": [
    {
      "buffer": 0,
      "byteOffset": 0,
      "byteLength": 161664,
      "byteStride": 32,
      "target": 34962
    },
    {
      "buffer": 0,
      "byteOffset": 161664,
      "byteLength": 10104,
      "target": 34963
    }
  ],
  "buffers": [
    {
      "uri": "buffer.bin",
      "byteLength": 171768
    }
  ],
  "materials": [
    {
      "name": "Glass",
      "doubleSided": true,
      "pbrMetallicRoughness": {
        "baseColorFactor": [
          0.139718,
          0.203322,
          0.262222,
          1
        ],
        "metallicFactor": 0
      }
    },
    {
      "name": "DarkWood",
      "doubleSided": true,
      "pbrMetallicRoughness": {
        "baseColorFactor": [
          0.106295,
          0.048997,
          0.023645,
          1
        ],
        "metallicFactor": 0
      }
    },
    {
      "name": "Dark",
      "doubleSided": true,
      "pbrMetallicRoughness": {
        "baseColorFactor": [
          0.054783,
          0.091548,
          0.089546,
          1
        ],
        "metallicFactor": 0
      }
    },
    {
      "name": "RoofBricks",
      "doubleSided": true,
      "pbrMetallicRoughness": {
        "baseColorFactor": [
          0.041016,
          0.0692,
          0.067501,
          1
        ],
        "metallicFactor": 0
      }
    },
    {
      "name": "Bricks",
      "doubleSided": true,
      "pbrMetallicRoughness": {
        "baseColorFactor": [
          0.132106,
          0.247575,
          0.209801,
          1
        ],
        "metallicFactor": 0
      }
    },
    {
      "name": "Main",
      "doubleSided": true,
      "pbrMetallicRoughness": {
        "baseColorFactor": [
          0.092037,
          0.171223,
          0.143844,
          1
        ],
        "metallicFactor": 0
      }
    },
    {
      "name": "White",
      "doubleSided": true,
      "pbrMetallicRoughness": {
        "baseColorFactor": [
          0.467263,
          0.467263,
          0.467263,
          1
        ],
        "metallicFactor": 0
      }
    },
    {
      "name": "Wood",
      "doubleSided": true,
      "pbrMetallicRoughness": {
        "baseColorFactor": [
          0.190718,
          0.0692,
          0.037332,
          1
        ],
        "metallicFactor": 0
      }
    }
  ],
  "meshes": [
    {
      "primitives": [
        {
          "attributes": {
            "POSITION": 0,
            "NORMAL": 1,
            "TEXCOORD_0": 2
          },
          "mode": 4,
          "material": 0,
          "indices": 3
        },
        {
          "attributes": {
            "POSITION": 0,
            "NORMAL": 1,
            "TEXCOORD_0": 2
          },
          "mode": 4,
          "material": 1,
          "indices": 4
        },
        {
          "attributes": {
            "POSITION": 0,
            "NORMAL": 1,
            "TEXCOORD_0": 2
          },
          "mode": 4,
          "material": 2,
          "indices": 5
        },
        {
          "attributes": {
            "POSITION": 0,
            "NORMAL": 1,
            "TEXCOORD_0": 2
          },
          "mode": 4,
          "material": 3,
          "indices": 6
        },
        {
          "attributes": {
            "POSITION": 0,
            "NORMAL": 1,
            "TEXCOORD_0": 2
          },
          "mode": 4,
          "material": 4,
          "indices": 7
        },
        {
          "attributes": {
            "POSITION": 0,
            "NORMAL": 1,
            "TEXCOORD_0": 2
          },
          "mode": 4,
          "material": 5,
          "indices": 8
        },
        {
          "attributes": {
            "POSITION": 0,
            "NORMAL": 1,
            "TEXCOORD_0": 2
          },
          "mode": 4,
          "material": 6,
          "indices": 9
        },
        {
          "attributes": {
            "POSITION": 0,
            "NORMAL": 1,
            "TEXCOORD_0": 2
          },
          "mode": 4,
          "material": 7,
          "indices": 10
        }
      ]
    }
  ],
  "nodes": [
    {
      "name": "empty_2",
      "children": [
        1
      ]
    },
    {
      "name": "o 1Story_GableRoof_Mat_Cube.042",
      "mesh": 0
    }
  ],
  "scenes": [
    {
      "name": "empty_1",
      "nodes": [
        0
      ]
    }
  ],
  "scene": 0
}