{
  "asset": {
    "generator": "glTF-Transform v4.2.1",
    "version": "2.0"
  },
  "accessors": [
    {
      "type": "VEC3",
      "componentType": 5126,
      "count": 10056,
      "max": [
        0.9468269944190979,
        3.8353800773620605,
        0.8442180156707764
      ],
      "min": [
        -0.9620519876480103,
        -0.013159000314772129,
        -1.1306190490722656
      ],
      "bufferView": 0,
      "byteOffset": 0
    },
    {
      "type": "VEC3",
      "componentType": 5126,
      "count": 10056,
      "bufferView": 0,
      "byteOffset": 12
    },
    {
      "type": "VEC2",
      "componentType": 5126,
      "count": 10056,
      "bufferView": 0,
      "byteOffset": 24
    },
    {
      "type": "SCALAR",
      "componentType": 5123,
      "count": 1668,
      "bufferView": 1,
      "byteOffset": 0
    },
    {
      "type": "SCALAR",
      "componentType": 5123,
      "count": 1710,
      "bufferView": 1,
      "byteOffset": 3336
    },
    {
      "type": "SCALAR",
      "componentType": 5123,
      "count": 618,
      "bufferView": 1,
      "byteOffset": 6756
    },
    {
      "type": "SCALAR",
      "componentType": 5123,
      "count": 2136,
      "bufferView": 1,
      "byteOffset": 7992
    },
    {
      "type": "SCALAR",
      "componentType": 5123,
      "count": 120,
      "bufferView": 1,
      "byteOffset": 12264
    },
    {
      "type": "SCALAR",
      "componentType": 5123,
      "count": 2952,
      "bufferView": 1,
      "byteOffset": 12504
    },
    {
      "type": "SCALAR",
      "componentType": 5123,
      "count": 636,
      "bufferView": 1,
      "byteOffset": 18408
    },
    {
      "type": "SCALAR",
      "componentType": 5123,
      "count": 216,
      "bufferView": 1,
      "byteOffset": 19680
    }
  ],
  "bufferViews": [
    {
      "buffer": 0,
      "byteOffset": 0,
      "byteLength": 321792,
      "byteStride": 32,
      "target": 34962
    },
    {
      "buffer": 0,
      "byteOffset": 321792,
      "byteLength": 20112,
      "target": 34963
    }
  ],
  "buffers": [
    {
      "uri": "buffer.bin",
      "byteLength": 341904
    }
  ],
  "materials": [
    {
      "name": "Bricks",
      "doubleSided": true,
      "pbrMetallicRoughness": {
        "baseColorFactor": [
          0.132106,
          0.247575,
          0.209801,
          1
        ],
        "metallicFactor": 0
      }
    },
    {
      "name": "Light",
      "doubleSided": true,
      "pbrMetallicRoughness": {
        "baseColorFactor": [
          0.269731,
          0.30101,
          0.172688,
          1
        ],
        "metallicFactor": 0
      }
    },
    {
      "name": "Main",
      "doubleSided": true,
      "pbrMetallicRoughness": {
        "baseColorFactor": [
          0.092037,
          0.171223,
          0.143844,
          1
        ],
        "metallicFactor": 0
      }
    },
    {
      "name": "Dark",
      "doubleSided": true,
      "pbrMetallicRoughness": {
        "baseColorFactor": [
          0.054783,
          0.091548,
          0.089546,
          1
        ],
        "metallicFactor": 0
      }
    },
    {
      "name": "White",
      "doubleSided": true,
      "pbrMetallicRoughness": {
        "baseColorFactor": [
          0.467263,
          0.467263,
          0.467263,
          1
        ],
        "metallicFactor": 0
      }
    },
    {
      "name": "Wood",
      "doubleSided": true,
      "pbrMetallicRoughness": {
        "baseColorFactor": [
          0.190718,
          0.0692,
          0.037332,
          1
        ],
        "metallicFactor": 0
      }
    },
    {
      "name": "DarkWood",
      "doubleSided": true,
      "pbrMetallicRoughness": {
        "baseColorFactor": [
          0.106295,
          0.048997,
          0.023645,
          1
        ],
        "metallicFactor": 0
      }
    },
    {
      "name": "Glass",
      "doubleSided": true,
      "pbrMetallicRoughness": {
        "baseColorFactor": [
          0.139718,
          0.203322,
          0.262222,
          1
        ],
        "metallicFactor": 0
      }
    }
  ],
  "meshes": [
    {
      "primitives": [
        {
          "attributes": {
            "POSITION": 0,
            "NORMAL": 1,
            "TEXCOORD_0": 2
          },
          "mode": 4,
          "material": 0,
          "indices": 3
        },
        {
          "attributes": {
            "POSITION": 0,
            "NORMAL": 1,
            "TEXCOORD_0": 2
          },
          "mode": 4,
          "material": 1,
          "indices": 4
        },
        {
          "attributes": {
            "POSITION": 0,
            "NORMAL": 1,
            "TEXCOORD_0": 2
          },
          "mode": 4,
          "material": 2,
          "indices": 5
        },
        {
          "attributes": {
            "POSITION": 0,
            "NORMAL": 1,
            "TEXCOORD_0": 2
          },
          "mode": 4,
          "material": 3,
          "indices": 6
        },
        {
          "attributes": {
            "POSITION": 0,
            "NORMAL": 1,
            "TEXCOORD_0": 2
          },
          "mode": 4,
          "material": 4,
          "indices": 7
        },
        {
          "attributes": {
            "POSITION": 0,
            "NORMAL": 1,
            "TEXCOORD_0": 2
          },
          "mode": 4,
          "material": 5,
          "indices": 8
        },
        {
          "attributes": {
            "POSITION": 0,
            "NORMAL": 1,
            "TEXCOORD_0": 2
          },
          "mode": 4,
          "material": 6,
          "indices": 9
        },
        {
          "attributes": {
            "POSITION": 0,
            "NORMAL": 1,
            "TEXCOORD_0": 2
          },
          "mode": 4,
          "material": 7,
          "indices": 10
        }
      ]
    }
  ],
  "nodes": [
    {
      "name": "empty_2",
      "children": [
        1
      ]
    },
    {
      "name": "o 3Story_Small_Mat_Cube.011",
      "mesh": 0
    }
  ],
  "scenes": [
    {
      "name": "empty_1",
      "nodes": [
        0
      ]
    }
  ],
  "scene": 0
}